HIERARCHY
ROOT Hips
{
	OFFSET 0.000000 0.000000 0.000000
	CHANNELS 6 Xposition Yposition Zposition Xrotation Yrotation Zrotation
	JOINT LeftUpLeg_virtual
	{
		OFFSET 0.000000 0.000000 0.000000
		CHANNELS 3 Xrotation Yrotation Zrotation
		JOINT LeftUpLeg
		{
			OFFSET 11.394100 -6.187798 -0.413800
			CHANNELS 3 Xrotation Yrotation Zrotation
			JOINT LeftLeg
			{
				OFFSET 0.430247 -32.302673 3.732800
				CHANNELS 3 Xrotation Yrotation Zrotation
				JOINT LeftFoot
				{
					OFFSET -0.430247 -48.264931 -6.423300
					CHANNELS 3 Xrotation Yrotation Zrotation
					JOINT LeftToeBase
					{
						OFFSET 4.230900 -16.068199 23.438400
						CHANNELS 3 Xrotation Yrotation Zrotation
						JOINT LeftToe_End
						{
							OFFSET 4.510700 0.695400 19.974600
							CHANNELS 3 Xrotation Yrotation Zrotation
							End Site
							{
								OFFSET 0 0 0
							}
						}
					}
				}
			}
		}
	}
	JOINT RightUpLeg_virtual
	{
		OFFSET 0.000000 0.000000 0.000000
		CHANNELS 3 Xrotation Yrotation Zrotation
		JOINT RightUpLeg
		{
			OFFSET -11.333700 -6.187798 -0.413800
			CHANNELS 3 Xrotation Yrotation Zrotation
			JOINT RightLeg
			{
				OFFSET -0.430392 -32.302628 3.733000
				CHANNELS 3 Xrotation Yrotation Zrotation
				JOINT RightFoot
				{
					OFFSET 0.430392 -48.264973 -6.423500
					CHANNELS 3 Xrotation Yrotation Zrotation
					JOINT RightToeBase
					{
						OFFSET -4.230900 -16.068199 23.438400
						CHANNELS 3 Xrotation Yrotation Zrotation
						JOINT RightToe_End
						{
							OFFSET -4.510700 0.695400 19.974600
							CHANNELS 3 Xrotation Yrotation Zrotation
							End Site
							{
								OFFSET 0 0 0
							}
						}
					}
				}
			}
		}
	}
	JOINT Spine_virtual
	{
		OFFSET 0.000000 0.000000 0.000000
		CHANNELS 3 Xrotation Yrotation Zrotation
		JOINT Spine
		{
			OFFSET -0.002400 12.777504 0.315300
			CHANNELS 3 Xrotation Yrotation Zrotation
			JOINT Spine1
			{
				OFFSET -0.002067 5.816869 0.032633
				CHANNELS 3 Xrotation Yrotation Zrotation
				JOINT Spine1_split
				{
					OFFSET -0.002067 5.816869 0.032633
					CHANNELS 3 Xrotation Yrotation Zrotation
					JOINT Spine2
					{
						OFFSET -0.002067 5.816869 0.032633
						CHANNELS 3 Xrotation Yrotation Zrotation
						JOINT Neck_virtual
						{
							OFFSET 0.000000 0.000000 0.000000
							CHANNELS 3 Xrotation Yrotation Zrotation
							JOINT Neck
							{
								OFFSET -0.003700 21.199493 -0.826900
								CHANNELS 3 Xrotation Yrotation Zrotation
								JOINT Head
								{
									OFFSET 0.000000 20.442200 4.834800
									CHANNELS 3 Xrotation Yrotation Zrotation
									JOINT HeadTop_End
									{
										OFFSET 0.000000 34.668396 4.968400
										CHANNELS 3 Xrotation Yrotation Zrotation
										End Site
										{
											OFFSET 0 0 0
										}
									}
								}
							}
						}
						JOINT LeftShoulder_virtual
						{
							OFFSET 0.000000 0.000000 0.000000
							CHANNELS 3 Xrotation Yrotation Zrotation
							JOINT LeftShoulder
							{
								OFFSET 3.288150 8.794197 -1.372250
								CHANNELS 3 Xrotation Yrotation Zrotation
								JOINT LeftShoulder_split
								{
									OFFSET 3.288150 8.794197 -1.372250
									CHANNELS 3 Xrotation Yrotation Zrotation
									JOINT LeftArm
									{
										OFFSET 11.953299 -2.279007 -0.146200
										CHANNELS 3 Xrotation Yrotation Zrotation
										JOINT LeftForeArm
										{
											OFFSET 18.448900 0.000000 0.000000
											CHANNELS 3 Xrotation Yrotation Zrotation
											JOINT LeftHand
											{
												OFFSET 29.527798 0.000000 0.000000
												CHANNELS 3 Xrotation Yrotation Zrotation
												End Site
												{
													OFFSET 0 0 0
												}
											}
										}
									}
								}
							}
						}
						JOINT RightShoulder_virtual
						{
							OFFSET 0.000000 0.000000 0.000000
							CHANNELS 3 Xrotation Yrotation Zrotation
							JOINT RightShoulder
							{
								OFFSET -3.249400 8.794197 -1.372250
								CHANNELS 3 Xrotation Yrotation Zrotation
								JOINT RightShoulder_split
								{
									OFFSET -3.249400 8.794197 -1.372250
									CHANNELS 3 Xrotation Yrotation Zrotation
									JOINT RightArm
									{
										OFFSET -11.953299 -2.279007 -0.146200
										CHANNELS 3 Xrotation Yrotation Zrotation
										JOINT RightForeArm
										{
											OFFSET -18.448900 0.000000 0.000000
											CHANNELS 3 Xrotation Yrotation Zrotation
											JOINT RightHand
											{
												OFFSET -29.527802 0.000000 0.000000
												CHANNELS 3 Xrotation Yrotation Zrotation
												End Site
												{
													OFFSET 0 0 0
												}
											}
										}
									}
								}
							}
						}
					}
				}
			}
		}
	}
}
MOTION
Frames: 4
Frame Time: 0.03333333
3.357261 80.767151 -12.842701 0.000000 0.000000 0.000000 4.527479 -46.845628 5.743010 -56.340069 3.322254 23.965039 48.458741 -11.104476 4.250398 5.998547 -4.224911 -20.190078 -2.938111 -4.718567 1.480337 0.000000 0.000000 0.000000 3.093544 -45.107522 4.844338 -42.177378 -23.743700 -35.548078 52.986576 20.158055 -8.767700 -13.593529 -15.074864 30.282825 6.936609 9.575037 -29.437876 0.000000 0.000000 0.000000 1.147501 -36.046299 3.719210 10.585102 12.386802 -0.210190 5.746186 -3.051756 -3.332720 0.068635 -0.882963 0.102668 0.000000 0.000000 0.000000 5.922863 0.899860 -2.189211 8.475653 22.974922 8.246594 -25.472478 15.025702 -16.788458 0.000000 0.000000 0.000000 5.120753 -2.138745 -4.112333 2.890295 -10.567993 -17.915743 -1.428142 -4.589386 -2.417432 -28.852744 -39.512019 -12.720434 29.836739 -51.424996 23.859792 0.000000 0.000000 0.000000 3.980636 -1.806772 -2.526408 -1.010654 29.648755 -16.848663 -3.209980 -18.916800 -5.413445 -56.932062 27.917032 26.830573 -70.655397 78.530141 77.033298 0.000000 0.000000 0.000000 
3.391976 80.630081 -13.501678 0.000000 0.000000 0.000000 5.206949 -47.697588 6.718858 -56.064805 3.785627 24.502583 47.858770 -11.206962 4.070003 5.785226 -3.033230 -20.676067 -2.143482 -4.518916 0.859172 0.000000 0.000000 0.000000 3.783398 -45.423804 5.715322 -43.507366 -22.342824 -35.221438 53.700365 19.893302 -8.774018 -13.845584 -14.232224 29.530921 7.746472 8.879622 -30.009457 0.000000 0.000000 0.000000 1.915761 -36.947410 4.693652 11.247047 13.344213 -1.008505 5.979088 -2.641737 -3.512491 -0.034384 -1.035856 -0.038988 0.000000 0.000000 0.000000 5.487446 1.420248 -2.382894 11.485696 25.475141 4.197172 -25.575797 16.370732 -12.990015 0.000000 0.000000 0.000000 5.770029 -1.977397 -4.317296 2.975624 -11.090826 -18.623691 -2.589395 -4.384265 -2.412044 -34.292519 -43.941281 -17.328284 29.616052 -52.370332 24.510856 0.000000 0.000000 0.000000 4.470088 -1.362442 -2.321312 -0.224969 29.959850 -11.338504 2.187528 -18.754110 -2.842472 -48.388236 33.548510 28.733185 -109.828124 76.227575 112.474603 0.000000 0.000000 0.000000 
3.348507 80.807274 -14.198746 0.000000 0.000000 0.000000 6.142302 -48.698412 7.515643 -55.377996 4.621445 25.585023 46.937244 -11.547690 3.842141 5.126346 -1.436684 -21.116057 -1.115467 -4.362718 0.308581 0.000000 0.000000 0.000000 4.704557 -46.116399 6.414758 -44.587659 -20.439592 -34.220767 53.452442 19.625843 -8.582402 -13.214469 -13.223554 28.828555 8.155540 8.139951 -29.744405 0.000000 0.000000 0.000000 2.976330 -38.443071 5.518832 11.562799 13.459649 -1.793337 6.060812 -2.275808 -3.497701 -0.037850 -1.069053 -0.097400 0.000000 0.000000 0.000000 4.875204 1.776936 -2.445076 13.189468 27.328936 0.360639 -25.348751 18.638357 -11.172420 0.000000 0.000000 0.000000 6.295945 -1.836095 -4.166989 2.949918 -11.616084 -18.806142 -4.041285 -5.058516 -1.915272 -39.235298 -45.539740 -20.862871 28.743041 -53.335615 23.937368 0.000000 0.000000 0.000000 4.864938 -1.011888 -2.097313 0.204853 29.247509 -7.753492 6.084899 -14.979004 0.327186 -38.774458 39.293860 26.217403 -120.786609 73.508340 119.661294 0.000000 0.000000 0.000000 
3.293349 81.415054 -14.718220 0.000000 0.000000 0.000000 7.159855 -50.130556 8.066308 -54.107823 5.918694 27.089073 45.737447 -12.106647 3.580933 4.335711 0.383577 -21.477019 -0.681255 -4.294839 -0.121021 0.000000 0.000000 0.000000 5.795793 -47.461680 6.905821 -45.426775 -18.256208 -32.696211 52.096076 19.421383 -8.153759 -11.280703 -11.915344 28.454143 7.750577 7.494007 -28.681399 0.000000 0.000000 0.000000 4.275298 -40.488682 6.160333 11.534478 12.891314 -2.488865 6.037615 -1.941949 -3.299385 0.035192 -0.961385 -0.062739 0.000000 0.000000 0.000000 4.287571 1.974242 -2.315759 12.866914 28.353352 -2.492583 -25.816618 20.394190 -11.227110 0.000000 0.000000 0.000000 6.662631 -1.668682 -3.608153 2.859366 -11.916347 -18.186338 -5.731453 -6.106663 -1.477980 -42.723690 -44.573309 -21.537680 27.198022 -54.796313 22.225092 0.000000 0.000000 0.000000 5.084981 -0.770017 -1.832567 0.471787 28.069021 -6.262159 6.154590 -10.835374 3.609850 -29.482095 45.599176 20.162013 -114.099369 73.511468 109.586260 0.000000 0.000000 0.000000 
